<svg width="65" height="64" viewBox="0 0 65 64" fill="none" xmlns="http://www.w3.org/2000/svg">
<path d="M46.5 12V32H56.5C56.8955 32.0001 57.2821 32.1174 57.6109 32.3372C57.9397 32.557 58.196 32.8693 58.3474 33.2347C58.4987 33.6001 58.5383 34.0022 58.4612 34.3901C58.384 34.778 58.1936 35.1343 57.914 35.414L33.914 59.414C33.5389 59.7889 33.0303 59.9996 32.5 59.9996C31.9697 59.9996 31.4611 59.7889 31.086 59.414L7.086 35.414C6.80638 35.1343 6.61597 34.778 6.53883 34.3901C6.4617 34.0022 6.50131 33.6001 6.65265 33.2347C6.80399 32.8693 7.06026 32.557 7.38908 32.3372C7.7179 32.1174 8.1045 32.0001 8.5 32H18.5V12C18.5 10.9391 18.9214 9.92172 19.6716 9.17157C20.4217 8.42143 21.4391 8 22.5 8H42.5C43.5604 8.00159 44.5769 8.42352 45.3267 9.17333C46.0765 9.92313 46.4984 10.9396 46.5 12ZM32.5 55.172L51.672 36H42.5V12H22.5V36H13.328L32.5 55.172Z" fill="white"/>
</svg>
