<svg width="137" height="136" viewBox="0 0 137 136" fill="none" xmlns="http://www.w3.org/2000/svg">
<g filter="url(#filter0_d_4_63)">
<rect x="2.5" y="2" width="128" height="128" rx="20" fill="black" shape-rendering="crispEdges"/>
<path d="M106.5 18H90.5V10H82.5V18H50.5V10H42.5V18H26.5C24.3792 18.0032 22.3463 18.847 20.8467 20.3467C19.347 21.8463 18.5032 23.8792 18.5 26V106C18.5032 108.121 19.347 110.154 20.8467 111.653C22.3463 113.153 24.3792 113.997 26.5 114H106.5C108.621 113.997 110.654 113.153 112.153 111.653C113.653 110.154 114.497 108.121 114.5 106V26C114.497 23.8792 113.653 21.8463 112.153 20.3467C110.654 18.847 108.621 18.0032 106.5 18ZM26.5 26H42.5V34H50.5V26H82.5V34H90.5V26H106.5V42H26.5V26ZM26.5 50H46.5V74H26.5V50ZM78.5 106H54.5V82H78.5V106ZM78.5 74H54.5V50H78.5V74ZM86.5 106V82H106.5L106.504 106H86.5Z" fill="white"/>
</g>
<defs>
<filter id="filter0_d_4_63" x="0.5" y="0" width="136" height="136" filterUnits="userSpaceOnUse" color-interpolation-filters="sRGB">
<feFlood flood-opacity="0" result="BackgroundImageFix"/>
<feColorMatrix in="SourceAlpha" type="matrix" values="0 0 0 0 0 0 0 0 0 0 0 0 0 0 0 0 0 0 127 0" result="hardAlpha"/>
<feOffset dx="2" dy="2"/>
<feGaussianBlur stdDeviation="2"/>
<feComposite in2="hardAlpha" operator="out"/>
<feColorMatrix type="matrix" values="0 0 0 0 0 0 0 0 0 0 0 0 0 0 0 0 0 0 0.5 0"/>
<feBlend mode="normal" in2="BackgroundImageFix" result="effect1_dropShadow_4_63"/>
<feBlend mode="normal" in="SourceGraphic" in2="effect1_dropShadow_4_63" result="shape"/>
</filter>
</defs>
</svg>
