<svg width="660" height="101" viewBox="0 0 660 101" fill="none" xmlns="http://www.w3.org/2000/svg">
<rect width="330" height="100" transform="translate(0 0.5)" fill="#FF0000"/>
<path d="M41.8409 40.9773C41.9167 39.0833 41.3636 37.6212 40.1818 36.5909C39.0152 35.5606 37.25 35.0455 34.8864 35.0455C33.2803 35.0455 31.8864 35.2727 30.7045 35.7273C29.5227 36.1667 28.5758 36.7803 27.8636 37.5682C27.1667 38.3409 26.7348 39.2348 26.5682 40.25C26.4015 41.0833 26.4545 41.8106 26.7273 42.4318C27.0152 43.053 27.4621 43.5909 28.0682 44.0455C28.6894 44.4848 29.4242 44.8712 30.2727 45.2045C31.1212 45.5227 32.0227 45.7955 32.9773 46.0227L36.9773 47.0227C38.9318 47.4773 40.6894 48.0833 42.25 48.8409C43.8258 49.5985 45.1439 50.5303 46.2045 51.6364C47.2803 52.7424 48.0379 54.0455 48.4773 55.5455C48.9167 57.0455 48.9773 58.7652 48.6591 60.7045C48.1742 63.553 47.0455 66.0227 45.2727 68.1136C43.5 70.1894 41.1742 71.803 38.2955 72.9545C35.4167 74.0909 32.0833 74.6591 28.2955 74.6591C24.5379 74.6591 21.3636 74.0833 18.7727 72.9318C16.1818 71.7803 14.2955 70.0758 13.1136 67.8182C11.947 65.5455 11.5985 62.7348 12.0682 59.3864H21.5909C21.4242 60.947 21.6515 62.25 22.2727 63.2955C22.9091 64.3258 23.8561 65.1061 25.1136 65.6364C26.3712 66.1515 27.8485 66.4091 29.5455 66.4091C31.2273 66.4091 32.7197 66.1667 34.0227 65.6818C35.3409 65.197 36.4091 64.5227 37.2273 63.6591C38.0455 62.7955 38.5455 61.803 38.7273 60.6818C38.9091 59.6364 38.75 58.7576 38.25 58.0455C37.75 57.3333 36.947 56.7273 35.8409 56.2273C34.75 55.7121 33.3939 55.2576 31.7727 54.8636L26.9091 53.5909C23.1515 52.6364 20.3106 51.1439 18.3864 49.1136C16.4621 47.0833 15.7727 44.3485 16.3182 40.9091C16.803 38.0909 17.9773 35.6288 19.8409 33.5227C21.7197 31.4015 24.0833 29.7576 26.9318 28.5909C29.7955 27.4091 32.9242 26.8182 36.3182 26.8182C39.7727 26.8182 42.6894 27.4167 45.0682 28.6136C47.447 29.7955 49.1818 31.447 50.2727 33.5682C51.3636 35.6894 51.697 38.1591 51.2727 40.9773H41.8409ZM89.5511 27.4545H99.392L94.392 57.6818C93.8314 61.0758 92.536 64.0455 90.5057 66.5909C88.4754 69.1364 85.892 71.1212 82.7557 72.5455C79.6193 73.9545 76.1193 74.6591 72.2557 74.6591C68.392 74.6591 65.1345 73.9545 62.483 72.5455C59.8314 71.1212 57.9148 69.1364 56.733 66.5909C55.5511 64.0455 55.2405 61.0758 55.8011 57.6818L60.8011 27.4545H70.642L65.7557 56.8409C65.483 58.6136 65.6193 60.1894 66.1648 61.5682C66.7254 62.947 67.6496 64.0303 68.9375 64.8182C70.2254 65.6061 71.8163 66 73.7102 66C75.6193 66 77.3466 65.6061 78.892 64.8182C80.4527 64.0303 81.733 62.947 82.733 61.5682C83.7481 60.1894 84.392 58.6136 84.6648 56.8409L89.5511 27.4545ZM99.7614 74L107.489 27.4545H125.852C129.367 27.4545 132.254 28.1288 134.511 29.4773C136.784 30.8106 138.375 32.6667 139.284 35.0455C140.208 37.4091 140.42 40.1364 139.92 43.2273C139.405 46.3333 138.284 49.0682 136.557 51.4318C134.845 53.7803 132.617 55.6136 129.875 56.9318C127.133 58.25 123.966 58.9091 120.375 58.9091H108.67L109.966 51.0227H120.08C121.989 51.0227 123.617 50.697 124.966 50.0455C126.33 49.3788 127.413 48.4621 128.216 47.2955C129.019 46.1136 129.542 44.7576 129.784 43.2273C130.042 41.6667 129.958 40.3106 129.534 39.1591C129.11 38.0076 128.33 37.1136 127.193 36.4773C126.072 35.8258 124.564 35.5 122.67 35.5H116.034L109.602 74H99.7614ZM141.199 74L148.926 27.4545H167.29C170.805 27.4545 173.699 28.0758 175.972 29.3182C178.259 30.5606 179.866 32.3258 180.79 34.6136C181.729 36.8864 181.949 39.5682 181.449 42.6591C180.934 45.75 179.82 48.4015 178.108 50.6136C176.411 52.8258 174.199 54.5303 171.472 55.7273C168.759 56.9091 165.616 57.5 162.04 57.5H149.744L151.108 49.5909H161.79C163.669 49.5909 165.275 49.3333 166.608 48.8182C167.941 48.303 168.994 47.5303 169.767 46.5C170.555 45.4697 171.07 44.1894 171.312 42.6591C171.57 41.0985 171.479 39.7955 171.04 38.75C170.6 37.6894 169.805 36.8864 168.653 36.3409C167.502 35.7803 165.987 35.5 164.108 35.5H157.472L151.04 74H141.199ZM169.835 52.8182L177.903 74H167.04L159.222 52.8182H169.835ZM183.574 74L191.301 27.4545H222.665L221.301 35.5682H199.778L197.96 46.6591H217.869L216.506 54.7727H196.597L194.778 65.8864H216.392L215.028 74H183.574ZM230.489 27.4545H242.625L250.284 58.7273H250.83L268.807 27.4545H280.943L273.216 74H263.67L268.716 43.7045H268.307L251.307 73.7727H244.784L237.784 43.5909H237.398L232.307 74H222.761L230.489 27.4545ZM281.324 74L289.051 27.4545H320.415L319.051 35.5682H297.528L295.71 46.6591H315.619L314.256 54.7727H294.347L292.528 65.8864H314.142L312.778 74H281.324Z" fill="white"/>
<rect width="330" height="100" transform="translate(330 0.5)" fill="white"/>
<path d="M353.136 74L360.864 27.4545H379.227C382.742 27.4545 385.636 28.0758 387.909 29.3182C390.197 30.5606 391.803 32.3258 392.727 34.6136C393.667 36.8864 393.886 39.5682 393.386 42.6591C392.871 45.75 391.758 48.4015 390.045 50.6136C388.348 52.8258 386.136 54.5303 383.409 55.7273C380.697 56.9091 377.553 57.5 373.977 57.5H361.682L363.045 49.5909H373.727C375.606 49.5909 377.212 49.3333 378.545 48.8182C379.879 48.303 380.932 47.5303 381.705 46.5C382.492 45.4697 383.008 44.1894 383.25 42.6591C383.508 41.0985 383.417 39.7955 382.977 38.75C382.538 37.6894 381.742 36.8864 380.591 36.3409C379.439 35.7803 377.924 35.5 376.045 35.5H369.409L362.977 74H353.136ZM381.773 52.8182L389.841 74H378.977L371.159 52.8182H381.773ZM395.511 74L403.239 27.4545H434.602L433.239 35.5682H411.716L409.898 46.6591H429.807L428.443 54.7727H408.534L406.716 65.8864H428.33L426.966 74H395.511ZM481.358 27.4545L473.631 74H465.131L449.79 44.7045H449.426L444.54 74H434.699L442.426 27.4545H451.062L466.335 56.7273H466.722L471.562 27.4545H481.358ZM486.352 35.5682L487.716 27.4545H525.943L524.58 35.5682H510.33L503.966 74H494.239L500.602 35.5682H486.352ZM542.08 27.4545L534.352 74H524.511L532.239 27.4545H542.08ZM589.108 27.4545L581.381 74H572.881L557.54 44.7045H557.176L552.29 74H542.449L550.176 27.4545H558.812L574.085 56.7273H574.472L579.312 27.4545H589.108ZM625.602 42.5C625.481 41.3939 625.223 40.4167 624.83 39.5682C624.451 38.7045 623.928 37.9773 623.261 37.3864C622.595 36.7803 621.784 36.3182 620.83 36C619.875 35.6818 618.769 35.5227 617.511 35.5227C615.133 35.5227 612.905 36.1136 610.83 37.2955C608.769 38.4773 607.011 40.197 605.557 42.4545C604.102 44.697 603.11 47.4394 602.58 50.6818C602.034 53.9242 602.034 56.6818 602.58 58.9545C603.14 61.2273 604.193 62.9621 605.739 64.1591C607.299 65.3409 609.307 65.9318 611.761 65.9318C613.989 65.9318 615.989 65.5379 617.761 64.75C619.534 63.947 620.981 62.8182 622.102 61.3636C623.239 59.9091 623.966 58.1894 624.284 56.2045L626.239 56.5H614.261L615.489 49.0909H634.966L633.966 54.9545C633.314 59.0455 631.883 62.5606 629.67 65.5C627.458 68.4394 624.701 70.697 621.398 72.2727C618.11 73.8485 614.504 74.6364 610.58 74.6364C606.216 74.6364 602.542 73.6742 599.557 71.75C596.587 69.8106 594.473 67.0606 593.216 63.5C591.973 59.9242 591.754 55.6818 592.557 50.7727C593.178 47 594.284 43.6364 595.875 40.6818C597.481 37.7121 599.443 35.197 601.761 33.1364C604.08 31.0758 606.648 29.5076 609.466 28.4318C612.299 27.3561 615.246 26.8182 618.307 26.8182C620.943 26.8182 623.33 27.2045 625.466 27.9773C627.617 28.7348 629.458 29.8106 630.989 31.2045C632.534 32.5985 633.701 34.2576 634.489 36.1818C635.292 38.0909 635.663 40.197 635.602 42.5H625.602Z" fill="black"/>
</svg>
