<svg width="64" height="64" viewBox="0 0 64 64" fill="none" xmlns="http://www.w3.org/2000/svg">
<path d="M29.9531 6C29.8357 6.00038 29.718 6.01131 29.6025 6.03223C23.2359 7.16534 17.5135 10.6134 13.5371 15.7129C9.56056 20.8126 7.61128 27.2034 8.06442 33.6543C8.51759 40.1051 11.3408 46.1606 15.9912 50.6543C20.6416 55.148 26.7902 57.7623 33.2529 57.9941C33.5809 58.0061 33.9094 57.9941 34.2334 57.9941C38.4311 57.9971 42.5681 56.9894 46.2939 55.0557C50.0199 53.1218 53.2249 50.3184 55.6386 46.8838C55.8342 46.5878 55.9484 46.2457 55.9697 45.8916C55.991 45.5375 55.9185 45.1835 55.7597 44.8662C55.601 44.5491 55.3614 44.2792 55.0654 44.084C54.7694 43.8888 54.4272 43.7749 54.0732 43.7539C50.0777 43.4032 46.2158 42.1386 42.7871 40.0576C39.3584 37.9767 36.4542 35.1352 34.2988 31.7529C32.1433 28.3705 30.7944 24.5376 30.3564 20.5508C29.9184 16.5639 30.4036 12.5295 31.7734 8.75977C31.8898 8.45815 31.932 8.13297 31.8974 7.81152C31.8628 7.48997 31.7522 7.18114 31.5742 6.91113C31.3961 6.6411 31.156 6.41728 30.874 6.25879C30.5921 6.10034 30.2763 6.01177 29.9531 6Z" fill="#EFEFEF"/>
<path d="M27.006 10.828C26.0895 14.7423 25.9649 18.8004 26.6397 22.7635C27.3145 26.7266 28.775 30.5148 30.9353 33.9052C33.0957 37.2956 35.9122 40.2198 39.2192 42.5057C42.5262 44.7916 46.257 46.3931 50.192 47.216C48.1239 49.358 45.6461 51.062 42.906 52.2268C40.1659 53.3915 37.2194 53.9932 34.242 53.996C33.966 53.996 33.686 54.006 33.406 53.996C28.2228 53.8134 23.2673 51.8208 19.4004 48.3644C15.5336 44.9079 12.9997 40.2061 12.2391 35.0757C11.4785 29.9454 12.5392 24.7106 15.2368 20.2809C17.9345 15.8513 22.0987 12.5066 27.006 10.828ZM29.96 6C29.8426 6.00038 29.7255 6.01108 29.61 6.032C23.2433 7.16504 17.5207 10.6134 13.5442 15.7131C9.56771 20.8127 7.61836 27.2032 8.0715 33.6541C8.52463 40.105 11.3482 46.1603 15.9986 50.654C20.649 55.1477 26.7974 57.7621 33.26 57.994C33.588 58.006 33.916 57.994 34.24 57.994C38.438 57.9971 42.5749 56.9891 46.3009 55.0552C50.0269 53.1214 53.2323 50.3186 55.646 46.884C55.8416 46.588 55.9558 46.2457 55.977 45.8916C55.9983 45.5374 55.9259 45.1839 55.7672 44.8666C55.6084 44.5494 55.3689 44.2795 55.0728 44.0842C54.7766 43.8888 54.4342 43.775 54.08 43.754C50.0845 43.4033 46.2232 42.1387 42.7944 40.0577C39.3657 37.9767 36.4613 35.1352 34.3058 31.7528C32.1504 28.3703 30.8015 24.5376 30.3636 20.5507C29.9256 16.5639 30.4102 12.5297 31.78 8.76C31.8966 8.45826 31.9393 8.13305 31.9047 7.81145C31.8701 7.48984 31.7591 7.18117 31.5811 6.91114C31.403 6.6411 31.163 6.41753 30.881 6.25904C30.599 6.10055 30.2833 6.01174 29.96 6Z" fill="#1A1A1A"/>
</svg>
