<svg width="56" height="56" viewBox="0 0 56 56" fill="none" xmlns="http://www.w3.org/2000/svg">
<path d="M26 0H30V10H26V0ZM39.376 13.8L46.388 6.788L49.216 9.616L42.204 16.628L39.376 13.8ZM46 26H56V30H46V26ZM39.376 42.2L42.204 39.374L49.216 46.386L46.388 49.214L39.376 42.2ZM26 46H30V56H26V46ZM6.788 46.384L13.8 39.372L16.628 42.2L9.618 49.212L6.788 46.384ZM0 26H10V30H0V26ZM6.79 9.616L9.618 6.788L16.63 13.8L13.8 16.628L6.79 9.616ZM28 20C29.5823 20 31.129 20.4692 32.4446 21.3482C33.7602 22.2273 34.7855 23.4767 35.391 24.9385C35.9965 26.4003 36.155 28.0089 35.8463 29.5607C35.5376 31.1126 34.7757 32.538 33.6569 33.6569C32.538 34.7757 31.1126 35.5376 29.5607 35.8463C28.0089 36.155 26.4003 35.9965 24.9385 35.391C23.4767 34.7855 22.2273 33.7602 21.3482 32.4446C20.4692 31.129 20 29.5823 20 28C20.0026 25.8791 20.8464 23.8458 22.3461 22.3461C23.8458 20.8464 25.8791 20.0026 28 20ZM28 16C25.6266 16 23.3065 16.7038 21.3332 18.0224C19.3598 19.3409 17.8217 21.2151 16.9134 23.4078C16.0052 25.6005 15.7676 28.0133 16.2306 30.3411C16.6936 32.6689 17.8365 34.8071 19.5147 36.4853C21.1929 38.1635 23.3311 39.3064 25.6589 39.7694C27.9867 40.2324 30.3995 39.9948 32.5922 39.0866C34.7849 38.1783 36.6591 36.6402 37.9776 34.6668C39.2962 32.6935 40 30.3734 40 28C40 24.8174 38.7357 21.7652 36.4853 19.5147C34.2348 17.2643 31.1826 16 28 16Z" fill="#1A1A1A"/>
</svg>
